<svg width="21" height="21" viewBox="0 0 21 21" fill="none" xmlns="http://www.w3.org/2000/svg">
<path d="M13.3391 10.5088L20.7163 3.13165C21.1056 2.74233 21.1056 2.1058 20.7163 1.71647L19.3011 0.300294C18.9118 -0.0890303 18.2752 -0.0890303 17.8859 0.300294L10.5088 7.67844L3.13163 0.301295C2.7423 -0.0880295 2.10577 -0.0880295 1.71645 0.301295L0.301271 1.71647C-0.0880537 2.1058 -0.0880537 2.74233 0.301271 3.13165L7.67842 10.5088L0.301271 17.8859C-0.0880537 18.2753 -0.0880537 18.9118 0.301271 19.3011L1.71745 20.7163C2.10678 21.1056 2.74331 21.1056 3.13263 20.7163L10.5098 13.3392L17.8869 20.7163C18.2762 21.1056 18.9128 21.1056 19.3021 20.7163L20.7173 19.3011C21.1066 18.9118 21.1066 18.2753 20.7173 17.8859L13.3391 10.5088Z" fill="#FB565A" fill-opacity="0.3"/>
</svg>
