<svg width="512" height="512" viewBox="0 0 512 512" fill="none" xmlns="http://www.w3.org/2000/svg">
<g clip-path="url(#clip0_78352_71)">
<rect width="512" height="512" rx="128" fill="#EEEEEE"/>
<rect width="512" height="512" rx="128" fill="#D9D9D9"/>
<path d="M239.235 85.971C259.02 124.888 198.125 151.32 170.188 122.129C158.547 109.692 163.902 85.659 192.138 72.5987C206.269 65.9126 226.054 59.8344 239.235 85.971Z" fill="black"/>
<path d="M363.781 68.8478C385.306 111.212 318.982 139.996 288.581 108.213C275.907 94.6565 281.727 68.5199 312.504 54.2919C327.875 47.006 349.409 40.4078 363.781 68.8478Z" fill="black"/>
<path fill-rule="evenodd" clip-rule="evenodd" d="M236.413 430.993C281.462 435.944 328.351 422.452 346.462 394.588C361.775 371.21 349.243 363.116 331.598 381.991C294.46 422.908 255.923 404.473 239.677 363.116L243.857 361.773C322.314 331.653 371.526 249.853 340.425 203.554C297.699 139.724 163.994 196.804 147.273 286.258C131.952 368.963 171.88 424.251 236.413 430.993ZM284.708 208.056C298.173 228.731 281.927 301.998 233.173 335.26C231.782 324.911 231.782 313.682 232.707 301.998C242.457 220.189 270.319 186.486 284.708 208.056Z" fill="black"/>
</g>
<defs>
<clipPath id="clip0_78352_71">
<rect width="512" height="512" rx="128" fill="white"/>
</clipPath>
</defs>
</svg>
