<svg xmlns="http://www.w3.org/2000/svg" width="199" height="58" fill="none"><g fill="#000" clip-path="url(#a)"><path d="M0 22.29v4.46h4.25v-4.46H0ZM20.15 7.84a7.74 7.74 0 0 0-6.25 3h-.14V0h-3.52v26.75h3.52v-9.18c0-3.68 2.29-6.31 5.65-6.31 3.18 0 5.03 2.37 5.03 5.57v9.92h3.52V16.2c0-5.1-3.15-8.36-7.8-8.36ZM46.06 8.36h-8.32v-6.5h-3.52v6.5H30.9v3.42h3.32v10.36c0 2.97 1.67 4.6 4.66 4.6h7.18V23.3h-6.47c-1.19 0-1.85-.67-1.85-1.82v-9.7h8.32V8.37ZM71.16 7.88a6.7 6.7 0 0 0-6.14 3.56h-.11a6.22 6.22 0 0 0-5.8-3.56A6.2 6.2 0 0 0 53.7 11h-.16V8.36H50.2v18.39h3.51V17.3c0-3.45 1.81-5.98 4.55-6.05 2.59-.08 4.1 1.78 4.1 4.57v10.92h3.52V17c0-4.12 2.44-5.75 4.55-5.75 2.55 0 4.07 1.78 4.07 4.57v10.92H78v-11.3c0-4.45-2.51-7.57-6.84-7.57ZM82.76 22c0 3 1.7 4.75 4.85 4.75h3.47v-3.42h-2.96c-1.18 0-1.84-.67-1.84-1.82V0h-3.52v22ZM50.02 34.1h-.15a8.02 8.02 0 0 0-6.56-3.18c-5.44-.07-9.34 3.96-9.34 9.64 0 5.73 3.97 9.75 9.3 9.68a7.84 7.84 0 0 0 6.6-3.36h.15v2.84h3.48V31.44h-3.48v2.66Zm-6.23 12.74c-3.85 0-6.3-2.8-6.3-6.28a6.06 6.06 0 0 1 6.3-6.27c3.75 0 6.2 2.8 6.2 6.27 0 3.44-2.45 6.28-6.2 6.28ZM76.5 38.09c-.85-4.14-4.52-7.17-9.34-7.17-5.81 0-9.7 4.25-9.7 9.64 0 5.4 3.89 9.68 9.7 9.68 4.82 0 8.49-3.1 9.34-7.28h-3.67a5.74 5.74 0 0 1-5.63 3.92c-3.78 0-6.22-2.85-6.22-6.32s2.44-6.28 6.22-6.28c2.82 0 4.9 1.67 5.63 3.8h3.67ZM95.32 34.1h-.15a8.02 8.02 0 0 0-6.56-3.18c-5.44-.07-9.33 3.96-9.33 9.64 0 5.73 3.96 9.75 9.3 9.68a7.84 7.84 0 0 0 6.59-3.36h.15v2.84h3.48V31.44h-3.48v2.66Zm-6.23 12.74c-3.85 0-6.3-2.8-6.3-6.28a6.06 6.06 0 0 1 6.3-6.27c3.75 0 6.2 2.8 6.2 6.27 0 3.44-2.45 6.28-6.2 6.28ZM118.8 34.28h-.15a8 8 0 0 0-6.6-3.36c-5.33-.07-9.3 3.96-9.3 9.68 0 5.69 3.9 9.71 9.34 9.64a8 8 0 0 0 6.53-3.18h.18v2.66h3.48V23.13h-3.48v11.15Zm-6.22 12.6c-3.86 0-6.3-2.8-6.3-6.28a6.06 6.06 0 0 1 6.3-6.28c3.74 0 6.18 2.85 6.18 6.28 0 3.47-2.44 6.28-6.18 6.28ZM135.54 30.92c-5.63 0-9.48 4.33-9.48 9.68 0 5.2 3.63 9.64 9.56 9.64 4.3 0 7.74-2.33 8.97-6.2h-3.67c-.82 1.73-2.78 2.84-5.15 2.84-3.34 0-5.7-2.22-5.97-5.06h15.16c.48-6.1-3.34-10.9-9.42-10.9Zm-.07 3.36a5.55 5.55 0 0 1 5.67 4.44h-11.26a5.5 5.5 0 0 1 5.59-4.44ZM169.93 30.96a6.72 6.72 0 0 0-6.15 3.55h-.12a6.24 6.24 0 0 0-5.81-3.55c-2.45 0-4.3 1.3-5.41 3.1h-.15v-2.62h-3.37v18.28h3.52v-9.38c0-3.43 1.81-5.94 4.56-6.02 2.59-.07 4.1 1.77 4.1 4.54v10.86h3.53v-9.67c0-4.1 2.44-5.73 4.56-5.73 2.55 0 4.07 1.77 4.07 4.54v10.86h3.52V38.5c0-4.44-2.52-7.54-6.85-7.54ZM189.38 46.8l-6.3-15.36h-3.89l8.38 20.02-.04.07c-.6 1.52-1.26 2.07-2.9 2.07h-4.33v3.5h4.34c3.19 0 4.89-1.43 6.08-4.53l8.07-21.13h-3.6l-5.8 15.36Z"/></g><defs><clipPath id="a"><path fill="#fff" d="M0 0h199v57.16H0z"/></clipPath></defs></svg>